<?xml version="1.0" encoding="UTF-8" standalone="no"?>
<!-- Created with Inkscape (http://www.inkscape.org/) -->

<svg
   xmlns:dc="http://purl.org/dc/elements/1.1/"
   xmlns:cc="http://creativecommons.org/ns#"
   xmlns:rdf="http://www.w3.org/1999/02/22-rdf-syntax-ns#"
   xmlns:svg="http://www.w3.org/2000/svg"
   xmlns="http://www.w3.org/2000/svg"
   xmlns:sodipodi="http://sodipodi.sourceforge.net/DTD/sodipodi-0.dtd"
   xmlns:inkscape="http://www.inkscape.org/namespaces/inkscape"
   width="159.28175mm"
   height="165.69635mm"
   viewBox="0 0 159.28175 165.69635"
   version="1.1"
   id="svg3774"
   inkscape:version="0.92.5 (2060ec1f9f, 2020-04-08)"
   sodipodi:docname="earth.svg">
  <defs
     id="defs3768" />
  <sodipodi:namedview
     id="base"
     pagecolor="#ffffff"
     bordercolor="#666666"
     borderopacity="1.0"
     inkscape:pageopacity="0.0"
     inkscape:pageshadow="2"
     inkscape:zoom="0.49497475"
     inkscape:cx="300.98438"
     inkscape:cy="299.36116"
     inkscape:document-units="mm"
     inkscape:current-layer="layer1"
     showgrid="false"
     fit-margin-top="0"
     fit-margin-left="0"
     fit-margin-right="0"
     fit-margin-bottom="0"
     inkscape:window-width="1366"
     inkscape:window-height="705"
     inkscape:window-x="-4"
     inkscape:window-y="-4"
     inkscape:window-maximized="1" />
  <metadata
     id="metadata3771">
    <rdf:RDF>
      <cc:Work
         rdf:about="">
        <dc:format>image/svg+xml</dc:format>
        <dc:type
           rdf:resource="http://purl.org/dc/dcmitype/StillImage" />
        <dc:title></dc:title>
      </cc:Work>
    </rdf:RDF>
  </metadata>
  <g
     inkscape:label="Calque 1"
     inkscape:groupmode="layer"
     id="layer1"
     transform="translate(-26.197882,-62.342963)">
    <path
       style="fill:#008000;fill-opacity:1;stroke:#000000;stroke-width:3.99999976;stroke-miterlimit:4;stroke-dasharray:none"
       d="m 121.56641,436.29297 c 0.60959,0.94081 1.13479,1.93224 1.7832,2.84765 1.78838,2.52481 3.72174,4.94914 5.78711,7.25391 2.06537,2.30477 4.26266,4.48985 6.57812,6.53516 2.31547,2.0453 4.7504,3.95085 7.28907,5.69726 2.53867,1.74641 5.18103,3.33215 7.91601,4.74024 2.73498,1.40808 5.5624,2.63764 8.4668,3.66797 2.90439,1.03033 5.88668,1.86146 8.93359,2.47461 3.04692,0.61314 6.15777,1.00948 9.32031,1.16601 3.16255,0.15653 6.37568,0.0739 9.62696,-0.26562 3.25127,-0.33952 6.5404,-0.93752 9.85351,-1.8125 3.31312,-0.87499 6.64999,-2.02668 9.99805,-3.47657 3.34806,-1.44989 6.70834,-3.19749 10.06445,-5.26171 5.47492,-3.36743 11.26737,-6.64342 17.22461,-9.87696 5.95725,-3.23353 12.07887,-6.42373 18.21289,-9.61914 6.13402,-3.19541 12.27991,-6.39539 18.28516,-9.64844 6.00525,-3.25304 11.87048,-6.56035 17.44141,-9.96679 5.57093,-3.40644 10.84667,-6.91276 15.67773,-10.56836 2.41553,-1.8278 4.7193,-3.69352 6.89258,-5.60157 2.17327,-1.90804 4.21655,-3.85911 6.10937,-5.85937 1.89283,-2.00026 3.63676,-4.04985 5.21094,-6.1543 1.57418,-2.10444 2.97797,-4.26377 4.19531,-6.48437 1.21735,-2.2206 2.24801,-4.50089 3.07032,-6.84961 0.82231,-2.34872 1.43708,-4.76509 1.82617,-7.25391 0.46855,-2.99713 0.70324,-5.8681 0.71484,-8.61718 0.0116,-2.74909 -0.19992,-5.37564 -0.62109,-7.88477 -0.42117,-2.50913 -1.05307,-4.90046 -1.88281,-7.17773 -0.82975,-2.27728 -1.85814,-4.44063 -3.07227,-6.49415 -1.21413,-2.05351 -2.61316,-3.99808 -4.1875,-5.83593 -1.57434,-1.83786 -3.32403,-3.56893 -5.23437,-5.19922 -1.91035,-1.63029 -3.98096,-3.15902 -6.20313,-4.58985 -2.22217,-1.43082 -4.59566,-2.76445 -7.10547,-4.0039 -2.50981,-1.23946 -5.15643,-2.38523 -7.92969,-3.44141 -2.77325,-1.05618 -5.67303,-2.02329 -8.68554,-2.9043 -3.01252,-0.881 -6.13765,-1.67669 -9.36524,-2.39062 -3.22758,-0.71393 -6.55809,-1.34544 -9.97656,-1.90039 -3.41847,-0.55495 -6.92461,-1.03343 -10.50977,-1.4375 -3.58516,-0.40407 -7.24889,-0.73481 -10.97656,-0.99609 -7.45533,-0.52256 -15.17056,-0.76758 -23.05078,-0.76758 -3.94011,0 -7.83458,0.15504 -11.67187,0.45508 -0.59051,0.0462 -1.15633,0.152 -1.74415,0.20507 a 299.00515,311.12699 0 0 0 -88.26171,127.29688 z"
       id="path5632"
       transform="scale(0.26458333)"
       inkscape:connector-curvature="0" />
    <path
       style="fill:#008000;fill-opacity:1;stroke:#000000;stroke-width:3.99999976;stroke-miterlimit:4;stroke-dasharray:none"
       d="m 636.09375,358.42188 c -0.0991,-0.0223 -0.19185,-0.0541 -0.29102,-0.0762 -3.44776,-0.76738 -6.96694,-1.41661 -10.55078,-1.9414 -3.58384,-0.52479 -7.23213,-0.92437 -10.93359,-1.19336 -3.70146,-0.269 -7.45717,-0.40625 -11.25781,-0.40625 -3.80064,0 -7.6299,0.20662 -11.46289,0.60351 -3.83299,0.3969 -7.6695,0.9822 -11.48047,1.73633 -3.81097,0.75413 -7.59745,1.67831 -11.33203,2.75 -3.73459,1.0717 -7.41766,2.29103 -11.02149,3.64063 -3.60382,1.3496 -7.12817,2.82817 -10.54687,4.41601 -3.4187,1.58784 -6.73095,3.28585 -9.91016,5.07227 -3.17921,1.78641 -6.22599,3.66209 -9.11133,5.60742 -2.88534,1.94533 -5.60937,3.96081 -8.14648,6.02539 -2.53711,2.06458 -4.88698,4.1781 -7.02149,6.32227 -2.1345,2.14416 -4.05293,4.31786 -5.73046,6.50195 -1.67754,2.18408 -3.11311,4.37816 -4.2793,6.5625 -1.1662,2.18434 -2.06358,4.35897 -2.66406,6.50391 -0.60049,2.14493 -0.90436,4.2603 -0.88477,6.32617 0.01,1.03293 0.10038,2.05481 0.27539,3.06054 0.17501,1.00573 0.43423,1.99519 0.78125,2.96875 0.34702,0.97357 0.78081,1.93074 1.30664,2.86719 0.52583,0.93645 1.14404,1.85368 1.85547,2.74805 0.71143,0.89437 1.51609,1.76595 2.41992,2.61328 0.90383,0.84733 1.90674,1.66951 3.00977,2.46484 3.69766,2.6662 7.20489,5.50583 10.60742,8.45118 3.40252,2.94534 6.70019,5.99682 9.97851,9.08593 3.27833,3.08912 6.53628,6.21499 9.86133,9.3125 3.32505,3.09752 6.71706,6.16617 10.25977,9.13672 3.54271,2.97055 7.23667,5.84453 11.16797,8.55274 3.93129,2.7082 8.09903,5.25004 12.58984,7.56054 2.24541,1.15525 4.5729,2.25276 6.99024,3.28321 2.41733,1.03044 4.92452,1.9941 7.53515,2.88281 2.61063,0.88871 5.32315,1.70353 8.14844,2.43359 2.82529,0.73006 5.76485,1.3752 8.82617,1.92969 3.73979,0.67738 7.43391,1.19519 11.07422,1.56055 3.64031,0.36535 7.22706,0.57791 10.75,0.64453 3.52294,0.0666 6.98148,-0.0117 10.36914,-0.23047 3.38766,-0.21882 6.70302,-0.5774 9.9375,-1.06836 3.23448,-0.49096 6.38777,-1.11543 9.45117,-1.86524 3.06341,-0.7498 6.03769,-1.62573 8.91211,-2.62109 2.87442,-0.99536 5.64887,-2.11027 8.31641,-3.33789 2.66753,-1.22762 5.22717,-2.56709 7.66992,-4.01367 2.44275,-1.44659 4.76869,-3.00009 6.96875,-4.65235 0.87605,-0.65791 1.63903,-1.40079 2.47461,-2.08984 a 299.00515,311.12699 0 0 0 -54.91211,-120.1289 z"
       id="path5635"
       transform="scale(0.26458333)"
       inkscape:connector-curvature="0" />
    <path
       style="fill:#00d4aa;fill-opacity:1;stroke:#000000;stroke-width:3.99999976;stroke-miterlimit:4;stroke-dasharray:none"
       d="m 400.01953,237.62695 a 299.00515,311.12699 0 0 0 -190.19141,71.36914 c 0.58782,-0.0531 1.15364,-0.1589 1.74415,-0.20507 3.83729,-0.30004 7.73176,-0.45508 11.67187,-0.45508 7.88022,0 15.59545,0.24502 23.05078,0.76758 3.72767,0.26128 7.3914,0.59202 10.97656,0.99609 3.58516,0.40407 7.0913,0.88255 10.50977,1.4375 3.41847,0.55495 6.74898,1.18646 9.97656,1.90039 3.22759,0.71393 6.35272,1.50963 9.36524,2.39062 3.01251,0.88101 5.91229,1.84812 8.68554,2.9043 2.77326,1.05618 5.41988,2.20195 7.92969,3.44141 2.50981,1.23945 4.8833,2.57308 7.10547,4.0039 2.22217,1.43083 4.29278,2.95956 6.20313,4.58985 1.91033,1.63029 3.66003,3.36136 5.23437,5.19922 1.57434,1.83785 2.97337,3.78242 4.1875,5.83593 1.21413,2.05352 2.24252,4.21687 3.07227,6.49415 0.82974,2.27726 1.46164,4.6686 1.88281,7.17773 0.42117,2.50913 0.63269,5.13568 0.62109,7.88477 -0.0116,2.74907 -0.24629,5.62005 -0.71484,8.61718 -0.38909,2.48882 -1.00386,4.90519 -1.82617,7.25391 -0.82231,2.34872 -1.85297,4.62901 -3.07032,6.84961 -1.21734,2.2206 -2.62113,4.37993 -4.19531,6.48437 -1.57418,2.10445 -3.31811,4.15404 -5.21094,6.1543 -1.89282,2.00026 -3.9361,3.95134 -6.10937,5.85937 -2.17328,1.90805 -4.47705,3.77377 -6.89258,5.60157 -4.83106,3.6556 -10.1068,7.16192 -15.67773,10.56836 -5.57093,3.40644 -11.43616,6.71375 -17.44141,9.96679 -6.00525,3.25305 -12.15114,6.45303 -18.28516,9.64844 -6.13402,3.19541 -12.25564,6.38561 -18.21289,9.61914 -5.95724,3.23354 -11.74969,6.50953 -17.22461,9.87696 -3.35611,2.06421 -6.71639,3.81182 -10.06445,5.26171 -3.34806,1.44989 -6.68493,2.60158 -9.99805,3.47657 -3.31311,0.87498 -6.60224,1.47298 -9.85351,1.8125 -3.25128,0.33951 -6.46441,0.42215 -9.62696,0.26562 -3.16253,-0.15653 -6.27339,-0.55287 -9.32031,-1.16601 -3.04691,-0.61315 -6.0292,-1.44428 -8.93359,-2.47461 -2.9044,-1.03033 -5.73182,-2.25989 -8.4668,-3.66797 -2.73498,-1.40809 -5.37734,-2.99383 -7.91601,-4.74024 -2.53867,-1.74641 -4.9736,-3.65196 -7.28907,-5.69726 -2.31546,-2.04531 -4.51275,-4.23039 -6.57812,-6.53516 -2.06537,-2.30477 -3.99873,-4.7291 -5.78711,-7.25391 -0.64841,-0.9154 -1.17361,-1.90684 -1.7832,-2.84765 a 299.00515,311.12699 0 0 0 -20.55079,112.46094 299.00515,311.12699 0 0 0 299.00391,311.12695 299.00515,311.12699 0 0 0 299.00586,-311.12695 299.00515,311.12699 0 0 0 -8.01953,-70.20313 c -0.83558,0.68905 -1.59856,1.43193 -2.47461,2.08984 -2.20006,1.65226 -4.526,3.20576 -6.96875,4.65235 -2.44275,1.44658 -5.00239,2.78605 -7.66992,4.01367 -2.66754,1.22762 -5.44199,2.34253 -8.31641,3.33789 -2.87442,0.99536 -5.8487,1.87129 -8.91211,2.62109 -3.0634,0.74981 -6.21669,1.37428 -9.45117,1.86524 -3.23448,0.49096 -6.54984,0.84954 -9.9375,1.06836 -3.38766,0.21881 -6.8462,0.29709 -10.36914,0.23047 -3.52294,-0.0666 -7.10969,-0.27918 -10.75,-0.64453 -3.64031,-0.36536 -7.33443,-0.88317 -11.07422,-1.56055 -3.06132,-0.55449 -6.00088,-1.19963 -8.82617,-1.92969 -2.82529,-0.73006 -5.53781,-1.54488 -8.14844,-2.43359 -2.61063,-0.88871 -5.11782,-1.85237 -7.53515,-2.88281 -2.41734,-1.03045 -4.74483,-2.12796 -6.99024,-3.28321 -4.49081,-2.3105 -8.65855,-4.85234 -12.58984,-7.56054 -3.9313,-2.70821 -7.62526,-5.58219 -11.16797,-8.55274 -3.54271,-2.97055 -6.93472,-6.0392 -10.25977,-9.13672 -3.32505,-3.09751 -6.583,-6.22338 -9.86133,-9.3125 -3.27832,-3.08911 -6.57599,-6.14059 -9.97851,-9.08593 -3.40253,-2.94535 -6.90976,-5.78498 -10.60742,-8.45118 -1.10303,-0.79533 -2.10594,-1.61751 -3.00977,-2.46484 -0.90383,-0.84733 -1.70849,-1.71891 -2.41992,-2.61328 -0.71143,-0.89437 -1.32964,-1.8116 -1.85547,-2.74805 -0.52583,-0.93645 -0.95962,-1.89362 -1.30664,-2.86719 -0.34702,-0.97356 -0.60624,-1.96302 -0.78125,-2.96875 -0.17501,-1.00573 -0.26559,-2.02761 -0.27539,-3.06054 -0.0196,-2.06587 0.28428,-4.18124 0.88477,-6.32617 0.60048,-2.14494 1.49786,-4.31957 2.66406,-6.50391 1.16619,-2.18434 2.60176,-4.37842 4.2793,-6.5625 1.67753,-2.18409 3.59596,-4.35779 5.73046,-6.50195 2.13451,-2.14417 4.48438,-4.25769 7.02149,-6.32227 2.53711,-2.06458 5.26114,-4.08006 8.14648,-6.02539 2.88534,-1.94533 5.93212,-3.82101 9.11133,-5.60742 3.17921,-1.78642 6.49146,-3.48443 9.91016,-5.07227 3.4187,-1.58784 6.94305,-3.06641 10.54687,-4.41601 3.60383,-1.3496 7.2869,-2.56893 11.02149,-3.64063 3.73458,-1.07169 7.52106,-1.99587 11.33203,-2.75 3.81097,-0.75413 7.64748,-1.33943 11.48047,-1.73633 3.83299,-0.39689 7.66225,-0.60351 11.46289,-0.60351 3.80064,0 7.55635,0.13725 11.25781,0.40625 3.70146,0.26899 7.34975,0.66857 10.93359,1.19336 3.58384,0.52479 7.10302,1.17402 10.55078,1.9414 0.0992,0.0221 0.19197,0.0539 0.29102,0.0762 A 299.00515,311.12699 0 0 0 400.01953,237.62695 Z"
       id="path4597"
       transform="scale(0.26458333)"
       inkscape:connector-curvature="0" />
    <path
       style="fill:#008000;fill-opacity:1;stroke:#000000;stroke-width:0.8021608;stroke-miterlimit:4;stroke-dasharray:none"
       d="m 156.97769,166.13001 c 2.29721,14.62485 -3.91563,39.05721 -14.09608,39.05721 -10.18046,0 -1.67922,-35.09872 -11.56603,-38.1489 -28.18304,-8.69478 -15.86164,-60.96295 15.90328,-36.3323 8.64935,6.70673 4.33726,0.90831 9.75883,35.42399 z"
       id="path4599"
       inkscape:connector-curvature="0"
       sodipodi:nodetypes="sssss" />
    <path
       style="fill:#008000;fill-opacity:1;stroke:#000000;stroke-width:1.05833328;stroke-miterlimit:4;stroke-dasharray:none"
       d="m 161.30162,196.66033 c -1.28461,3.3015 -3.44116,5.54399 -4.81677,5.00874 -1.37563,-0.53526 -0.53644,-1.56959 0.74817,-4.87109 1.28461,-3.3015 2.52817,-7.61995 3.9038,-7.0847 1.37561,0.53525 1.4494,3.64555 0.1648,6.94705 z"
       id="path4602"
       inkscape:connector-curvature="0"
       sodipodi:nodetypes="sssss" />
    <path
       style="fill:#008000;fill-opacity:1;stroke:#000000;stroke-width:0.81713295;stroke-miterlimit:4;stroke-dasharray:none"
       d="m 88.542236,157.8903 c -29.621654,27.14683 -17.387284,32.87493 -26.780764,28.44849 -4.25583,-2.00543 -10.67997,-25.11204 -19.85765,-39.29027 -11.1757,-17.26489 30.47186,-28.87057 27.73013,-3.34166 -1.19265,11.10501 26.622655,7.11358 18.908284,14.18344 z"
       id="path4605"
       inkscape:connector-curvature="0"
       sodipodi:nodetypes="sssss" />
  </g>
</svg>
